<mxfile host="Electron" agent="Mozilla/5.0 (Windows NT 10.0; Win64; x64) AppleWebKit/537.36 (KHTML, like Gecko) draw.io/25.0.2 Chrome/128.0.6613.186 Electron/32.2.5 Safari/537.36" version="25.0.2">
  <diagram name="Page-1" id="nk33O3myFzExoFOTdXr2">
    <mxGraphModel dx="724" dy="434" grid="1" gridSize="10" guides="1" tooltips="1" connect="1" arrows="1" fold="1" page="1" pageScale="1" pageWidth="850" pageHeight="1100" math="0" shadow="0">
      <root>
        <mxCell id="0" />
        <mxCell id="1" parent="0" />
        <mxCell id="L0LTj8KVW8KC8nR_OFEM-1" style="edgeStyle=orthogonalEdgeStyle;rounded=0;orthogonalLoop=1;jettySize=auto;html=1;" edge="1" parent="1" source="UBjv-P3hsI7ne-E2DAJY-2" target="L0LTj8KVW8KC8nR_OFEM-2">
          <mxGeometry relative="1" as="geometry">
            <mxPoint x="400" y="110" as="targetPoint" />
          </mxGeometry>
        </mxCell>
        <mxCell id="UBjv-P3hsI7ne-E2DAJY-2" value="START" style="rounded=1;whiteSpace=wrap;html=1;arcSize=50;" parent="1" vertex="1">
          <mxGeometry x="360" y="40" width="80" height="30" as="geometry" />
        </mxCell>
        <mxCell id="UBjv-P3hsI7ne-E2DAJY-3" value="END" style="rounded=1;whiteSpace=wrap;html=1;arcSize=50;" parent="1" vertex="1">
          <mxGeometry x="360" y="580" width="80" height="30" as="geometry" />
        </mxCell>
        <mxCell id="L0LTj8KVW8KC8nR_OFEM-4" value="" style="edgeStyle=orthogonalEdgeStyle;rounded=0;orthogonalLoop=1;jettySize=auto;html=1;" edge="1" parent="1" source="L0LTj8KVW8KC8nR_OFEM-2" target="L0LTj8KVW8KC8nR_OFEM-3">
          <mxGeometry relative="1" as="geometry" />
        </mxCell>
        <mxCell id="L0LTj8KVW8KC8nR_OFEM-2" value="INPUT A&lt;div&gt;- ใส่ชื่อ&lt;/div&gt;&lt;div&gt;- อายุ&lt;/div&gt;" style="shape=parallelogram;perimeter=parallelogramPerimeter;whiteSpace=wrap;html=1;fixedSize=1;" vertex="1" parent="1">
          <mxGeometry x="340" y="110" width="120" height="60" as="geometry" />
        </mxCell>
        <mxCell id="L0LTj8KVW8KC8nR_OFEM-7" style="edgeStyle=orthogonalEdgeStyle;rounded=0;orthogonalLoop=1;jettySize=auto;html=1;" edge="1" parent="1" source="L0LTj8KVW8KC8nR_OFEM-3" target="L0LTj8KVW8KC8nR_OFEM-8">
          <mxGeometry relative="1" as="geometry">
            <mxPoint x="400" y="320" as="targetPoint" />
          </mxGeometry>
        </mxCell>
        <mxCell id="L0LTj8KVW8KC8nR_OFEM-3" value="INPUT B&lt;div&gt;- ใส่ชื่อ&lt;/div&gt;&lt;div&gt;- อายุ&lt;/div&gt;" style="shape=parallelogram;perimeter=parallelogramPerimeter;whiteSpace=wrap;html=1;fixedSize=1;" vertex="1" parent="1">
          <mxGeometry x="340" y="200" width="120" height="60" as="geometry" />
        </mxCell>
        <mxCell id="L0LTj8KVW8KC8nR_OFEM-9" style="edgeStyle=orthogonalEdgeStyle;rounded=0;orthogonalLoop=1;jettySize=auto;html=1;" edge="1" parent="1" source="L0LTj8KVW8KC8nR_OFEM-8" target="L0LTj8KVW8KC8nR_OFEM-10">
          <mxGeometry relative="1" as="geometry">
            <mxPoint x="400" y="390" as="targetPoint" />
          </mxGeometry>
        </mxCell>
        <mxCell id="L0LTj8KVW8KC8nR_OFEM-8" value="แสดง&amp;nbsp;&lt;div&gt;Name : ชื่อ(A) (อายุ A)&lt;/div&gt;&lt;div&gt;Name : ชื่อ(B) (อายุ B)&lt;br&gt;&lt;/div&gt;" style="shape=parallelogram;perimeter=parallelogramPerimeter;whiteSpace=wrap;html=1;fixedSize=1;" vertex="1" parent="1">
          <mxGeometry x="310" y="290" width="180" height="60" as="geometry" />
        </mxCell>
        <mxCell id="L0LTj8KVW8KC8nR_OFEM-12" value="" style="edgeStyle=orthogonalEdgeStyle;rounded=0;orthogonalLoop=1;jettySize=auto;html=1;" edge="1" parent="1" source="L0LTj8KVW8KC8nR_OFEM-10" target="L0LTj8KVW8KC8nR_OFEM-11">
          <mxGeometry relative="1" as="geometry" />
        </mxCell>
        <mxCell id="L0LTj8KVW8KC8nR_OFEM-10" value="ทำการสลับอายุ A กับ B" style="rounded=0;whiteSpace=wrap;html=1;" vertex="1" parent="1">
          <mxGeometry x="340" y="380" width="120" height="40" as="geometry" />
        </mxCell>
        <mxCell id="L0LTj8KVW8KC8nR_OFEM-13" value="" style="edgeStyle=orthogonalEdgeStyle;rounded=0;orthogonalLoop=1;jettySize=auto;html=1;" edge="1" parent="1" source="L0LTj8KVW8KC8nR_OFEM-11" target="UBjv-P3hsI7ne-E2DAJY-3">
          <mxGeometry relative="1" as="geometry" />
        </mxCell>
        <mxCell id="L0LTj8KVW8KC8nR_OFEM-11" value="แสดง&amp;nbsp;&lt;div&gt;Name : ชื่อ(A) (อายุ A ที่สลับเป็น B)&lt;/div&gt;&lt;div&gt;Name : ชื่อ(B) (อายุ B ที่สลับเป็น A)&lt;br&gt;&lt;/div&gt;" style="shape=parallelogram;perimeter=parallelogramPerimeter;whiteSpace=wrap;html=1;fixedSize=1;" vertex="1" parent="1">
          <mxGeometry x="285" y="460" width="230" height="60" as="geometry" />
        </mxCell>
      </root>
    </mxGraphModel>
  </diagram>
</mxfile>
